<?xml version="1.0" encoding="UTF-8"?>
<svg width="23px" height="22px" viewBox="0 0 23 22" version="1.1" xmlns="http://www.w3.org/2000/svg" xmlns:xlink="http://www.w3.org/1999/xlink">
    <!-- Generator: Sketch 41.1 (35376) - http://www.bohemiancoding.com/sketch -->
    <title>41-e-commerce-package-buy-purchase</title>
    <desc>Created with Sketch.</desc>
    <defs></defs>
    <g id="Page-1" stroke="none" stroke-width="1" fill="none" fill-rule="evenodd" stroke-linecap="round" stroke-linejoin="round">
        <g id="iPhone-7-Copy-3" transform="translate(-338.000000, -34.000000)" stroke="#222222">
            <g id="41-e-commerce-package-buy-purchase" transform="translate(339.000000, 35.000000)">
                <path d="M21,19.95 L5.32907052e-15,19.95 L0.7177568,1.05 L20.2822432,1.05 L21,19.95 L21,19.95 L21,19.95 L21,19.95 L21,19.95 Z M13.65,5.25 C14.229899,5.25 14.7,4.77989899 14.7,4.2 C14.7,3.62010101 14.229899,3.15 13.65,3.15 C13.070101,3.15 12.6,3.62010101 12.6,4.2 C12.6,4.77989899 13.070101,5.25 13.65,5.25 L13.65,5.25 L13.65,5.25 L13.65,5.25 L13.65,5.25 Z M7.35,5.25 C7.92989899,5.25 8.4,4.77989899 8.4,4.2 C8.4,3.62010101 7.92989899,3.15 7.35,3.15 C6.77010101,3.15 6.3,3.62010101 6.3,4.2 C6.3,4.77989899 6.77010101,5.25 7.35,5.25 L7.35,5.25 L7.35,5.25 L7.35,5.25 L7.35,5.25 Z" id="Layer-1"></path>
                <polygon id="Layer-2" points="20.37 2.1 0.63 2.1 2.41951688 0 18.5804831 0"></polygon>
                <path d="M13.65,6.3 L13.65,9.45 C13.65,11.189697 12.2400795,12.6 10.5,12.6 L10.5,12.6 C8.76030304,12.6 7.35,11.1900795 7.35,9.45 L7.35,6.3 L7.35,6.3" id="Layer-3"></path>
            </g>
        </g>
    </g>
</svg>