<?xml version="1.0" encoding="UTF-8"?>
<svg width="42px" height="38px" viewBox="0 0 42 38" version="1.1" xmlns="http://www.w3.org/2000/svg" xmlns:xlink="http://www.w3.org/1999/xlink">
    <!-- Generator: Sketch 41.1 (35376) - http://www.bohemiancoding.com/sketch -->
    <title>19-multimeda-pic-picture-collection</title>
    <desc>Created with Sketch.</desc>
    <defs></defs>
    <g id="Page-1" stroke="none" stroke-width="1" fill="none" fill-rule="evenodd" stroke-linecap="round" stroke-linejoin="round">
        <g id="Admin#Product#Edit" transform="translate(-74.000000, -181.000000)" stroke="#FFFFFF">
            <g id="Group" transform="translate(75.000000, 182.000000)">
                <g id="19-multimeda-pic-picture-collection">
                    <polygon id="Layer-1" points="32 8 1.70530257e-14 8 1.70530257e-14 36 32 36"></polygon>
                    <polygon id="Layer-2" points="14.4116291 35.7945312 4.63032227 25.5863762 20.0971967 11.7945313 32 24.2167631 32 35.7945312"></polygon>
                    <polygon id="Layer-3" points="14.5818993 35.9630678 -5.31840698e-08 20.7545387 2.76696781e-07 35.9630677"></polygon>
                    <path d="M6.8,17.2 C5.4745166,17.2 4.4,16.1254834 4.4,14.8 C4.4,13.4745166 5.4745166,12.4 6.8,12.4 C8.1254834,12.4 9.2,13.4745166 9.2,14.8 C9.2,16.1254834 8.1254834,17.2 6.8,17.2 L6.8,17.2 Z" id="Layer-4"></path>
                    <polygon id="Layer-5" points="36 6 36 4 4 4 4 8 32 8 32 32 36 32"></polygon>
                    <polygon id="Layer-6" points="40 2 40 0 8 0 8 4 36 4 36 28 40 28"></polygon>
                </g>
            </g>
        </g>
    </g>
</svg>